# xmcd
#
# Track frame offsets:
#	182
#	31477
#	54072
#	78340
#	92017
#	116030
#	134192
#	162142
#	179075
#	205657
#	222740
#	246752
#
# Disc length: 3596 seconds
# Revision: 0
# Processed by: cddbd v1.5.2PL0 Copyright (c) Steve Scherf et al.
# Submitted via: dBpowerAMP V12.0
#
DISCID=ac0e0a0c
DTITLE=Eagles - Selected Works: 1972-1999, Disc 4
DYEAR=2000
DGENRE=Country Rock
TTITLE0=Hotel California (Live)
TTITLE1=Victim Of Love (Live)
TTITLE2=Peaceful Easy Feeling (Live)
TTITLE3=Please Come Home For Christmas (Live)
TTITLE4=Ol' 55 (Live)
TTITLE5=Take It to the Limit (Live)
TTITLE6=Those Shoes (Live)
TTITLE7=Funky New Year (Live)
TTITLE8=Dirty Laundry (Live)
TTITLE9=Funk 49 (Live)
TTITLE10=All She Wants To Do Is Dance (Live)
TTITLE11=The Best Of My Love (Live)
EXTD=
EXTT0=
EXTT1=
EXTT2=
EXTT3=
EXTT4=
EXTT5=
EXTT6=
EXTT7=
EXTT8=
EXTT9=
EXTT10=
EXTT11=
PLAYORDER=
